<svg width="64" height="64" version="1.1" viewBox="0 0 64 64" xml:space="preserve" xmlns="http://www.w3.org/2000/svg"><linearGradient id="a" x1="8" x2="8" y1="1" y2="15" gradientTransform="matrix(4 0 0 4 -1e-7 .031904)" gradientUnits="userSpaceOnUse"><stop stop-color="#ff5f5f" offset="0"/><stop stop-color="#e1da5b" offset=".5"/><stop stop-color="#5fff97" offset="1"/></linearGradient><g><path d="m8 8.0319a4 4 0 0 0-4 4v40a4 4 0 0 0 4 4h48a4 4 0 0 0 4-4v-28a4 4 0 0 0-4-4h-16a4 4 0 0 1-4-4v-4a4 4 0 0 0-4-4z" fill="#e0e0e0"/><path d="m36 56.032a4 4 0 0 0 6 3.4l16-10.044a4 4 0 0 0 0-6.896l-16-10.044a4 4 0 0 0-6 3.4z" fill="#383838"/><path d="m48 4.0319-28.984 8a4 4 0 0 0-3.016 4v22.2a10 10 0 1 0 8 9.8v-28.976l20-5.712v12.688l8-4v-14a4 4 0 0 0-4-4z" fill="url(#a)"/></g></svg>
